<?xml version="1.0" encoding="utf-8"?>
<!-- Generator: Adobe Illustrator 18.0.0, SVG Export Plug-In . SVG Version: 6.00 Build 0)  -->
<!DOCTYPE svg PUBLIC "-//W3C//DTD SVG 1.1//EN" "http://www.w3.org/Graphics/SVG/1.1/DTD/svg11.dtd">
<svg version="1.1" id="Layer_1" xmlns="http://www.w3.org/2000/svg" xmlns:xlink="http://www.w3.org/1999/xlink" x="0px" y="0px"
	 viewBox="193 0 575.7 560" enable-background="new 193 0 575.7 560" xml:space="preserve">
<path fill="#DDDDDD" d="M480,0C321.5,0,193,128.6,193,287c0,126.8,82.8,234.2,195.5,273c14.1,1.8,19.4-7,19.4-14.1s0-24.7,0-49.3
	c-79.2,17.6-96.9-38.7-96.9-38.7c-12.3-33.5-31.7-42.3-31.7-42.3C252.8,398,281,398,281,398c28.2,1.8,44,29.9,44,29.9
	c26.4,44,66.9,31.7,82.8,24.7c1.8-19.4,10.6-31.7,17.6-38.7c-63.4-7-130.3-31.7-130.3-142.6c0-31.7,10.6-56.4,29.9-77.5
	c-1.8-5.3-12.3-35.2,3.5-74c0,0,24.7-7,79.2,29.9c22.9-7,47.5-8.8,72.2-8.8c24.7,0,49.3,3.5,72.2,8.8c54.6-37,79.2-29.9,79.2-29.9
	c15.8,38.7,5.3,68.7,3.5,75.7c17.6,19.4,29.9,45.8,29.9,77.5c0,110.9-66.9,133.8-130.3,140.9c10.6,8.8,19.4,26.4,19.4,52.8
	c0,38.7,0,68.7,0,79.2c0,7,5.3,15.8,19.4,14.1c114.5-38.7,195.5-146.2,195.5-273C767,128.6,638.5,0,480,0z"/>
</svg>
