<svg xmlns="http://www.w3.org/2000/svg" xmlns:xlink="http://www.w3.org/1999/xlink" version="1.1" id="Layer_1" x="0px" y="0px" width="90px" height="90px" viewBox="0 0 90 90" enable-background="new 0 0 90 90" xml:space="preserve">
<g>
	<path fill="#000000" d="M55.977,56.164c-0.221,0-0.436-0.006-0.652-0.018c-5.881-0.32-9.584-4.938-12.849-9.009   c-2.657-3.314-5.168-6.444-8.181-6.609c-2.867-0.15-6.69,2.137-11.373,6.82l-4.498-4.494c6.188-6.185,11.341-8.936,16.221-8.673   c5.849,0.319,9.538,4.921,12.793,8.979c2.666,3.33,5.189,6.474,8.234,6.639c2.947,0.173,6.811-2.175,11.574-6.944l4.498,4.494   C65.748,53.346,60.717,56.164,55.977,56.164z"/>
	<polygon fill="#000000" points="18.257,48.192 16.966,46.903 13.45,50.425 9.928,46.903 8.639,48.192 12.16,51.714 8.639,55.234    9.928,56.523 13.45,53.004 16.966,56.523 18.257,55.234 14.733,51.714  "/>
	<polygon fill="#000000" points="81.361,34.766 80.07,33.477 76.551,36.998 73.027,33.477 71.738,34.766 75.26,38.286    71.738,41.806 73.027,43.095 76.551,39.575 80.07,43.095 81.361,41.806 77.84,38.286  "/>
</g>
</svg>