<?xml version="1.0" encoding="utf-8"?>
<!-- Generator: Adobe Illustrator 18.0.0, SVG Export Plug-In . SVG Version: 6.00 Build 0)  -->
<!DOCTYPE svg PUBLIC "-//W3C//DTD SVG 1.1//EN" "http://www.w3.org/Graphics/SVG/1.1/DTD/svg11.dtd">
<svg version="1.1" id="Layer_1" xmlns="http://www.w3.org/2000/svg" xmlns:xlink="http://www.w3.org/1999/xlink" x="0px" y="0px"
	 viewBox="7.9 32.4 29.2 10.6" enable-background="new 7.9 32.4 29.2 10.6" xml:space="preserve">
<g>
	<path fill="#E3E5ED" d="M26.7,41.6c-0.1,0-0.2,0-0.2,0c-2.2-0.1-3.7-1.9-4.9-3.4c-1-1.3-2-2.5-3.1-2.5c-1.1-0.1-2.6,0.8-4.3,2.6
		l-1.7-1.7c2.4-2.4,4.3-3.4,6.2-3.3c2.2,0.1,3.6,1.9,4.9,3.4c1,1.3,2,2.5,3.1,2.5c1.1,0.1,2.6-0.8,4.4-2.7l1.7,1.7
		C30.5,40.5,28.6,41.6,26.7,41.6z"/>
	<polygon fill="#E3E5ED" points="12.3,38.6 11.8,38.1 10.5,39.4 9.1,38.1 8.6,38.6 10,39.9 8.6,41.3 9.1,41.8 10.5,40.4 11.8,41.8 
		12.3,41.3 11,39.9 	"/>
	<polygon fill="#E3E5ED" points="36.4,33.4 35.9,32.9 34.6,34.3 33.3,32.9 32.8,33.4 34.1,34.8 32.8,36.1 33.3,36.6 34.6,35.3 
		35.9,36.6 36.4,36.1 35.1,34.8 	"/>
</g>
</svg>
