<?xml version="1.0" encoding="utf-8"?>
<!-- Generator: Adobe Illustrator 18.0.0, SVG Export Plug-In . SVG Version: 6.00 Build 0)  -->
<!DOCTYPE svg PUBLIC "-//W3C//DTD SVG 1.1//EN" "http://www.w3.org/Graphics/SVG/1.1/DTD/svg11.dtd">
<svg version="1.1" id="Your_Icon" xmlns="http://www.w3.org/2000/svg" xmlns:xlink="http://www.w3.org/1999/xlink" x="0px" y="0px"
	 viewBox="0 -1.3 22.7 21.4" enable-background="new 0 -1.3 22.7 21.4" xml:space="preserve">
<g>
	<path fill="#E3E5ED" d="M11.5,14.8c-0.1,0-0.2,0-0.3,0.1h0c0-0.2,0.2-0.4,0.4-0.4c0.1,0,0.2,0,0.2,0l0.1-0.2c0,0-0.1-0.1-0.3-0.1
		c-0.5,0-0.7,0.5-0.7,0.9c0,0.5,0.3,0.7,0.6,0.7c0.3,0,0.5-0.2,0.5-0.5C12,15.1,11.8,14.8,11.5,14.8z M11.5,15.6
		c-0.2,0-0.3-0.2-0.3-0.4c0-0.1,0.1-0.2,0.3-0.2c0.2,0,0.3,0.1,0.3,0.3C11.7,15.5,11.6,15.6,11.5,15.6z"/>
	<path fill="#E3E5ED" d="M16.3,13.4l0.5,0.3c0.2-0.4,0.4-0.7,0.6-1.1l-0.6-0.2C16.6,12.7,16.5,13.1,16.3,13.4z"/>
	<path fill="#E3E5ED" d="M15.4,5.4L15,5.9c1.4,1.1,2.2,2.7,2.2,4.5c0,0.2,0,0.4,0,0.7l0.6,0.1c0-0.2,0-0.5,0-0.7
		C17.8,8.4,16.9,6.6,15.4,5.4z"/>
	<path fill="#E3E5ED" d="M12.6,2c-0.2-0.3-0.4-0.6-0.6-0.8c0.1-0.1,0.1-0.3,0.1-0.4c0-0.5-0.4-0.9-0.9-0.9c-0.5,0-0.9,0.4-0.9,0.9
		c0,0.2,0.1,0.3,0.1,0.5C10.3,1.5,10.1,1.7,10,2c-4.1,0.7-7.2,4.2-7.2,8.4c0,4.7,3.9,8.5,8.6,8.5c4.8,0,8.6-3.8,8.6-8.5
		C20,6.1,16.8,2.6,12.6,2z M11.2,0.4c0.2,0,0.3,0.2,0.3,0.3s-0.2,0.3-0.3,0.3c-0.2,0-0.3-0.2-0.3-0.3C10.9,0.6,11,0.4,11.2,0.4z
		 M10.9,1.6c0.1,0,0.2,0.1,0.3,0.1c0.1,0,0.3,0,0.4-0.1c0.1,0.1,0.2,0.2,0.3,0.4c-0.2,0-0.4,0-0.6,0c-0.2,0-0.5,0-0.7,0
		C10.7,1.8,10.8,1.6,10.9,1.6z M11.3,18.3c-4.5,0-8.1-3.6-8.1-8s3.6-8,8.1-8s8.1,3.6,8.1,8S15.8,18.3,11.3,18.3z"/>
	<path fill="#E3E5ED" d="M11.3,3.3c-4,0-7.2,3.2-7.2,7.1s3.2,7.1,7.2,7.1s7.2-3.2,7.2-7.1S15.3,3.3,11.3,3.3z M11.3,17.1
		c-3.8,0-6.8-3-6.8-6.7s3.1-6.7,6.8-6.7s6.8,3,6.8,6.7S15.1,17.1,11.3,17.1z"/>
	<path fill="#E3E5ED" d="M11.3,9.8c-0.3,0-0.6,0.2-0.6,0.5c0,0.3,0.3,0.6,0.6,0.6c0.3,0,0.6-0.2,0.6-0.6C11.9,10,11.6,9.8,11.3,9.8z
		"/>
	<path fill="#E3E5ED" d="M12.4,10.3c0-0.5-0.3-0.9-0.7-1l0-5l-0.5,0l0,5c-0.1,0-0.1,0-0.1,0L9,4.7L8.8,4.8l2,4.6
		c-0.2,0.1-0.4,0.3-0.4,0.5l-3.5,0l0,0.8l3.5,0c0.2,0.4,0.5,0.7,1,0.7c0.1,0,0.2,0,0.3,0l0.1,0.2c-0.1,0.1-0.2,0.3-0.1,0.4
		c0.1,0.2,0.3,0.3,0.5,0.2c0.2-0.1,0.3-0.3,0.2-0.5c-0.1-0.2-0.2-0.2-0.4-0.2l-0.1-0.2C12.2,11.1,12.4,10.7,12.4,10.3z M11.3,11.1
		c-0.5,0-0.8-0.4-0.8-0.8c0-0.4,0.4-0.8,0.8-0.8c0.5,0,0.8,0.4,0.8,0.8C12.2,10.8,11.8,11.1,11.3,11.1z"/>
</g>
</svg>
